<svg width="61" height="61" viewBox="0 0 61 61" fill="none" xmlns="http://www.w3.org/2000/svg">
<path d="M22.0137 37.9297H11.5723L7.98633 47H6L16.3359 21.1953H17.4785L27.6035 47H25.582L22.0137 37.9297ZM12.2227 36.3125H21.416L17.918 27.0488C17.625 26.3223 17.2734 25.3145 16.8633 24.0254C16.5469 25.1504 16.2012 26.1699 15.8262 27.084L12.2227 36.3125ZM42.4219 47L41.9824 43.9766H41.8418C40.8809 45.207 39.8906 46.0801 38.8711 46.5957C37.8633 47.0996 36.668 47.3516 35.2852 47.3516C33.4102 47.3516 31.9512 46.8711 30.9082 45.9102C29.8652 44.9492 29.3438 43.6191 29.3438 41.9199C29.3438 40.0566 30.1172 38.6094 31.6641 37.5781C33.2227 36.5469 35.4727 36.002 38.4141 35.9434L42.0527 35.8379V34.5723C42.0527 32.7559 41.6836 31.3848 40.9453 30.459C40.207 29.5332 39.0176 29.0703 37.377 29.0703C35.6074 29.0703 33.7734 29.5625 31.875 30.5469L31.2246 29.0352C33.3223 28.0508 35.3965 27.5586 37.4473 27.5586C39.5449 27.5586 41.1094 28.1035 42.1406 29.1934C43.1836 30.2832 43.7051 31.9824 43.7051 34.291V47H42.4219ZM35.3906 45.7695C37.4297 45.7695 39.0352 45.1895 40.207 44.0293C41.3906 42.8574 41.9824 41.2344 41.9824 39.1602V37.2793L38.6426 37.4199C35.959 37.5488 34.043 37.9707 32.8945 38.6855C31.7578 39.3887 31.1895 40.4902 31.1895 41.9902C31.1895 43.1855 31.5527 44.1172 32.2793 44.7852C33.0176 45.4414 34.0547 45.7695 35.3906 45.7695Z" fill="#E87C40"/>
<path d="M27.0137 33.9297H16.5723L12.9863 43H11L21.3359 17.1953H22.4785L32.6035 43H30.582L27.0137 33.9297ZM17.2227 32.3125H26.416L22.918 23.0488C22.625 22.3223 22.2734 21.3145 21.8633 20.0254C21.5469 21.1504 21.2012 22.1699 20.8262 23.084L17.2227 32.3125ZM47.4219 43L46.9824 39.9766H46.8418C45.8809 41.207 44.8906 42.0801 43.8711 42.5957C42.8633 43.0996 41.668 43.3516 40.2852 43.3516C38.4102 43.3516 36.9512 42.8711 35.9082 41.9102C34.8652 40.9492 34.3438 39.6191 34.3438 37.9199C34.3438 36.0566 35.1172 34.6094 36.6641 33.5781C38.2227 32.5469 40.4727 32.002 43.4141 31.9434L47.0527 31.8379V30.5723C47.0527 28.7559 46.6836 27.3848 45.9453 26.459C45.207 25.5332 44.0176 25.0703 42.377 25.0703C40.6074 25.0703 38.7734 25.5625 36.875 26.5469L36.2246 25.0352C38.3223 24.0508 40.3965 23.5586 42.4473 23.5586C44.5449 23.5586 46.1094 24.1035 47.1406 25.1934C48.1836 26.2832 48.7051 27.9824 48.7051 30.291V43H47.4219ZM40.3906 41.7695C42.4297 41.7695 44.0352 41.1895 45.207 40.0293C46.3906 38.8574 46.9824 37.2344 46.9824 35.1602V33.2793L43.6426 33.4199C40.959 33.5488 39.043 33.9707 37.8945 34.6855C36.7578 35.3887 36.1895 36.4902 36.1895 37.9902C36.1895 39.1855 36.5527 40.1172 37.2793 40.7852C38.0176 41.4414 39.0547 41.7695 40.3906 41.7695Z" fill="#110303"/>
</svg>
